<svg xmlns="http://www.w3.org/2000/svg" id="Layer_2" data-name="Layer 2" viewBox="0 0 990.33 799.05"><g id="Illustration_2" data-name="Illustration 2"><g><path d="M738.49,268.24c0,14.63,10.72,26.48,23.97,26.48h44.25s106.93,0,106.93,0c28.74,0,52.03,25.54,52.03,57.05v2.27c0,31.5-23.28,57.04-52.03,57.04h-96.21c.72,5.47,1.09,11.06,1.09,16.76v4.65c0,64.65-47.8,117.06-106.78,117.06H149.35c-58.97,0-106.77-52.41-106.77-117.06v-4.65c0-55.21,34.85-101.49,81.74-113.83,3.15-.83,6.04-2.64,8.17-5.32l.04-.05c3.86-4.9,6.25-11.67,6.25-19.14,0-8.44-3.05-15.97-7.83-20.93-2.94-3.04-6.88-4.62-10.92-4.62h-20.75c-31.31,0-56.7-27.84-56.7-62.17v-2.47c0-34.34,25.39-62.17,56.7-62.17h95.03c6.44,0,11.57-6.19,11.56-13.76,0-.05,0-.09,0-.14v-4.71C205.88,53.07,254.28,0,313.99,0H857.56c59.71,0,108.11,53.07,108.11,118.53v4.71c0,65.47-48.41,118.54-108.12,118.54h-95.1c-6.63,0-12.6,2.98-16.95,7.74-4.33,4.82-7.02,11.42-7.02,18.71Z" style="fill: #f9f7fa;"></path><path d="M990.33,683.83c0,1.21-.07,2.41-.2,3.59-.27,2.28-.77,4.52-1.5,6.65-1.99,5.86-5.64,11.11-10.47,15.31-7.52,6.53-17.9,10.58-29.38,10.58H42.17C19.17,719.97,.07,703.95,0,683.94c-.03-10.02,4.63-19.09,12.17-25.65s17.9-10.58,29.37-10.58H948.79c16.99,0,31.62,8.88,38.04,21.6,2.27,4.44,3.51,9.35,3.51,14.52Z" style="fill: #e2f5c6;"></path><g><path d="M66.5,488.22c.57,1.01,2.87,4.76,7.35,6.09,2.45,.73,4.57,.43,5.77,.16,0,.44,.27,7.79,5.91,11.39,4.59,2.93,10.76,2.11,14.99-2.19,.75,1.17,8.46,12.78,21.91,12.95,10.69,.14,20.66-7,25.23-18.1,1.6-.02,19.93-.52,29.55-16.7,5.36-9.01,5.27-18.28,5.05-22.01,1.38-5.24,2.41-12.32,.79-20.06-5.3-25.3-35.75-42.61-62.27-39.8-22.32,2.36-36.38,18.4-39.57,22.24-10.77,12.98-13.82,26.97-14.92,32.31-3.05,14.8-1.22,27.13,.22,33.71Z" style="fill: #59911d;"></path><polygon points="134.03 682.45 103.83 682.45 109.96 436.87 127.91 436.87 134.03 682.45" style="fill: #8e6549;"></polygon><path d="M56.99,486.5c1.92,5.54,8.21,21.46,24.22,32.78,14.21,10.05,28.23,10.91,33.87,10.93" style="fill: none; stroke: #8e6549; stroke-miterlimit: 10; stroke-width: 7px;"></path><path d="M167.83,508.66c-1.07,3.84-4.69,15.01-15.14,23.41-12.23,9.83-25.35,9.05-28.68,8.74" style="fill: none; stroke: #8e6549; stroke-miterlimit: 10; stroke-width: 7px;"></path><path d="M169.63,444.91c-.99,3.73-4.76,16.2-16.43,25.05-13.51,10.24-27.83,8.24-30.92,7.73" style="fill: none; stroke: #8e6549; stroke-miterlimit: 10; stroke-width: 7px;"></path><ellipse cx="83.91" cy="405.62" rx="56.33" ry="61" style="fill: #6ead31;"></ellipse><ellipse cx="56.99" cy="460.47" rx="33.41" ry="36.17" style="fill: #84c64a;"></ellipse><ellipse cx="165.12" cy="491.66" rx="23.62" ry="25.58" style="fill: #84c64a;"></ellipse><ellipse cx="169.63" cy="413.41" rx="37.5" ry="40.61" style="fill: #6ead31;"></ellipse><ellipse cx="138.65" cy="372.04" rx="39.84" ry="43.13" style="fill: #84c64a;"></ellipse><ellipse cx="185.35" cy="440.75" rx="23.62" ry="25.58" style="fill: #84c64a;"></ellipse></g><g><path d="M823.35,534.64c.47,.77,2.34,3.62,6.01,4.63,2.01,.55,3.73,.33,4.71,.12,0,.34,.22,5.93,4.83,8.67,3.75,2.23,8.79,1.61,12.25-1.66,.61,.89,6.91,9.73,17.9,9.86,8.73,.1,16.88-5.32,20.61-13.78,1.31-.01,16.28-.39,24.14-12.71,4.38-6.86,4.31-13.91,4.12-16.75,1.13-3.99,1.97-9.37,.65-15.26-4.33-19.26-29.21-32.42-50.88-30.29-18.24,1.8-29.72,14-32.33,16.93-8.8,9.88-11.29,20.52-12.19,24.59-2.49,11.27-.99,20.65,.18,25.65Z" style="fill: #59911d;"></path><polygon points="878.53 682.45 853.86 682.45 858.86 495.56 873.52 495.56 878.53 682.45" style="fill: #8e6549;"></polygon><path d="M815.58,533.33c1.57,4.22,6.71,16.33,19.79,24.94,11.61,7.65,23.06,8.3,27.68,8.31" style="fill: none; stroke: #8e6549; stroke-miterlimit: 10; stroke-width: 5.72px;"></path><path d="M906.15,550.2c-.88,2.92-3.83,11.43-12.37,17.82-9.99,7.48-20.72,6.88-23.44,6.65" style="fill: none; stroke: #8e6549; stroke-miterlimit: 10; stroke-width: 5.72px;"></path><path d="M907.62,501.68c-.81,2.84-3.89,12.33-13.43,19.06-11.04,7.79-22.74,6.27-25.26,5.88" style="fill: none; stroke: #8e6549; stroke-miterlimit: 10; stroke-width: 5.72px;"></path><ellipse cx="837.58" cy="471.79" rx="46.03" ry="46.42" style="fill: #6ead31;"></ellipse><ellipse cx="815.58" cy="513.53" rx="27.29" ry="27.53" style="fill: #84c64a;"></ellipse><ellipse cx="903.93" cy="537.26" rx="19.3" ry="19.46" style="fill: #84c64a;"></ellipse><ellipse cx="907.62" cy="477.71" rx="30.64" ry="30.9" style="fill: #6ead31;"></ellipse><ellipse cx="882.31" cy="446.23" rx="32.55" ry="32.82" style="fill: #84c64a;"></ellipse><ellipse cx="920.46" cy="498.52" rx="19.3" ry="19.46" style="fill: #84c64a;"></ellipse></g><rect x="48.44" y="719.97" width="850.03" height="79.08" rx="23.51" ry="23.51" style="fill: #e2f5c6;"></rect><rect x="201.35" y="515.96" width="580.34" height="146.72" style="fill: #edac45;"></rect><g><line x1="201.35" y1="649.04" x2="781.69" y2="649.04" style="fill: none; stroke: #db8a09; stroke-miterlimit: 10; stroke-width: .5px;"></line><line x1="201.35" y1="632.05" x2="781.69" y2="632.05" style="fill: none; stroke: #db8a09; stroke-miterlimit: 10; stroke-width: .5px;"></line><line x1="201.35" y1="615.06" x2="781.69" y2="615.06" style="fill: none; stroke: #db8a09; stroke-miterlimit: 10; stroke-width: .5px;"></line><line x1="201.35" y1="598.06" x2="781.69" y2="598.06" style="fill: none; stroke: #db8a09; stroke-miterlimit: 10; stroke-width: .5px;"></line><line x1="201.35" y1="581.07" x2="781.69" y2="581.07" style="fill: none; stroke: #db8a09; stroke-miterlimit: 10; stroke-width: .5px;"></line><line x1="201.35" y1="564.08" x2="781.69" y2="564.08" style="fill: none; stroke: #db8a09; stroke-miterlimit: 10; stroke-width: .5px;"></line><line x1="201.35" y1="547.09" x2="781.69" y2="547.09" style="fill: none; stroke: #db8a09; stroke-miterlimit: 10; stroke-width: .5px;"></line><line x1="201.35" y1="530.09" x2="781.69" y2="530.09" style="fill: none; stroke: #db8a09; stroke-miterlimit: 10; stroke-width: .5px;"></line></g><rect x="201.35" y="515.96" width="580.34" height="4.35" style="fill: #db8a09;"></rect><path d="M142.17,506.25H852.1v1c0,3.02-2.45,5.47-5.47,5.47H147.64c-3.02,0-5.47-2.45-5.47-5.47v-1h0Z" style="fill: #fff;"></path><path d="M195.27,512.72H799v.5c0,1.51-1.23,2.74-2.74,2.74H198c-1.51,0-2.74-1.23-2.74-2.74v-.5h0Z" style="fill: #fff;"></path><line x1="195.27" y1="512.72" x2="799" y2="512.72" style="fill: none; stroke: #787878; stroke-miterlimit: 10; stroke-width: .5px;"></line><polygon points="840.13 506.25 153 506.25 215.72 441.47 777.41 441.47 840.13 506.25" style="fill: #7f3689;"></polygon><path d="M171.09,288.44h404.32v6.69H176.78c-3.14,0-5.69-2.55-5.69-5.69v-1h0Z" style="fill: #fff;"></path><path d="M176.46,295.13h404.32v3.35H179.31c-1.57,0-2.85-1.28-2.85-2.85v-.5h0Z" style="fill: #fff;"></path><rect x="215.72" y="298.48" width="321.58" height="143" style="fill: #edac45;"></rect><rect x="537.3" y="288.44" width="240.11" height="153.04" style="fill: #fcbf51;"></rect><g><line x1="215.72" y1="430.86" x2="537.3" y2="430.86" style="fill: none; stroke: #db8a09; stroke-miterlimit: 10; stroke-width: .5px;"></line><line x1="215.72" y1="413.87" x2="537.3" y2="413.87" style="fill: none; stroke: #db8a09; stroke-miterlimit: 10; stroke-width: .5px;"></line><line x1="215.72" y1="396.88" x2="537.3" y2="396.88" style="fill: none; stroke: #db8a09; stroke-miterlimit: 10; stroke-width: .5px;"></line><line x1="215.72" y1="379.89" x2="537.3" y2="379.89" style="fill: none; stroke: #db8a09; stroke-miterlimit: 10; stroke-width: .5px;"></line><line x1="215.72" y1="362.89" x2="537.3" y2="362.89" style="fill: none; stroke: #db8a09; stroke-miterlimit: 10; stroke-width: .5px;"></line><line x1="215.72" y1="345.9" x2="537.3" y2="345.9" style="fill: none; stroke: #db8a09; stroke-miterlimit: 10; stroke-width: .5px;"></line><line x1="215.72" y1="328.91" x2="537.3" y2="328.91" style="fill: none; stroke: #db8a09; stroke-miterlimit: 10; stroke-width: .5px;"></line><line x1="215.72" y1="311.92" x2="537.3" y2="311.92" style="fill: none; stroke: #db8a09; stroke-miterlimit: 10; stroke-width: .5px;"></line></g><rect x="201.35" y="662.69" width="580.34" height="19.77" style="fill: #e2e2e2;"></rect><rect x="215.72" y="298.48" width="323.31" height="3.96" style="fill: #db8a09;"></rect><polygon points="801.02 288.44 178.31 288.44 490.67 105.07 490.89 105.07 624.39 183.44 797.47 285.04 801.02 288.44" style="fill: #7f3689;"></polygon><polygon points="811.51 298.48 504.13 298.48 514.63 288.44 580.97 224.97 624.39 183.44 657.82 151.47 734.67 224.97 797.47 285.04 801.02 288.44 811.51 298.48" style="fill: #480540;"></polygon><polygon points="657.82 156.31 732.14 227.39 806.45 298.48 657.82 298.48 509.19 298.48 583.5 227.39 657.82 156.31" style="fill: #fff;"></polygon><polygon points="657.82 172.27 723.79 235.37 789.77 298.48 657.82 298.48 525.88 298.48 591.85 235.37 657.82 172.27" style="fill: #e89c15;"></polygon><polygon points="781.69 298.48 533.95 298.48 555.13 278.22 555.74 277.64 572.89 261.23 573.5 260.64 590.65 244.24 591.27 243.65 595.89 239.23 608.42 227.25 609.03 226.66 626.18 210.25 626.8 209.67 643.95 193.26 644.56 192.68 657.82 179.99 671.08 192.68 671.7 193.26 688.85 209.67 689.46 210.25 706.61 226.66 707.22 227.25 719.76 239.23 724.38 243.65 724.99 244.24 742.14 260.64 742.75 261.23 759.9 277.64 760.52 278.22 781.69 298.48" style="fill: #fcbf51;"></polygon><g><line x1="772.46" y1="430.86" x2="542.25" y2="430.86" style="fill: none; stroke: #e89c15; stroke-miterlimit: 10; stroke-width: .5px;"></line><line x1="542.25" y1="413.87" x2="772.46" y2="413.87" style="fill: none; stroke: #e89c15; stroke-miterlimit: 10; stroke-width: .5px;"></line><line x1="542.25" y1="396.88" x2="772.46" y2="396.88" style="fill: none; stroke: #e89c15; stroke-miterlimit: 10; stroke-width: .5px;"></line><line x1="542.25" y1="379.89" x2="772.46" y2="379.89" style="fill: none; stroke: #e89c15; stroke-miterlimit: 10; stroke-width: .5px;"></line><line x1="542.25" y1="362.89" x2="772.46" y2="362.89" style="fill: none; stroke: #e89c15; stroke-miterlimit: 10; stroke-width: .5px;"></line><line x1="542.25" y1="345.9" x2="772.46" y2="345.9" style="fill: none; stroke: #e89c15; stroke-miterlimit: 10; stroke-width: .5px;"></line><line x1="542.25" y1="328.91" x2="772.46" y2="328.91" style="fill: none; stroke: #e89c15; stroke-miterlimit: 10; stroke-width: .5px;"></line><line x1="542.25" y1="311.92" x2="772.46" y2="311.92" style="fill: none; stroke: #e89c15; stroke-miterlimit: 10; stroke-width: .5px;"></line><line x1="542.25" y1="294.92" x2="772.46" y2="294.92" style="fill: none; stroke: #e89c15; stroke-miterlimit: 10; stroke-width: .5px;"></line></g><path d="M806.45,298.48c-2.78,2.77-5.56,5.54-8.35,8.31-2.78-2.77-5.56-5.54-8.34-8.31h16.69Z" style="fill: #fff;"></path><path d="M509.4,298.29c2.78,2.77,5.56,5.54,8.35,8.31,2.78-2.77,5.56-5.54,8.34-8.31-5.56,0-11.13,0-16.69,0Z" style="fill: #fff;"></path><polygon points="464.55 409.4 520.26 462.68 575.96 515.96 464.55 515.96 353.15 515.96 408.85 462.68 464.55 409.4" style="fill: #480540;"></polygon><polygon points="464.55 412.91 518.42 464.43 572.29 515.96 464.55 515.96 356.81 515.96 410.68 464.43 464.55 412.91" style="fill: #fff;"></polygon><polygon points="464.55 424.48 512.37 470.22 560.2 515.96 464.55 515.96 368.91 515.96 416.73 470.22 464.55 424.48" style="fill: #e89c15;"></polygon><polygon points="554.87 515.96 374.24 515.96 399.76 491.55 400.38 490.96 419.4 472.77 464.55 429.58 509.71 472.77 528.73 490.96 529.34 491.55 554.87 515.96" style="fill: #fcbf51;"></polygon><path d="M571.64,515.32l-5.92,6.02c-2.07-2.05-4.14-4.1-6.21-6.14,4.04,.04,8.09,.08,12.13,.13Z" style="fill: #fff;"></path><rect x="537.3" y="288.44" width="4.95" height="153.04" style="fill: #e89c15;"></rect><rect x="772.46" y="288.44" width="4.95" height="153.04" style="fill: #e89c15;"></rect><g><polygon points="760.52 278.22 555.13 278.22 555.74 277.64 759.9 277.64 760.52 278.22" style="fill: #e89c15;"></polygon><polygon points="742.75 261.23 572.89 261.23 573.5 260.64 742.14 260.64 742.75 261.23" style="fill: #e89c15;"></polygon><polygon points="724.99 244.24 590.65 244.24 591.27 243.65 724.38 243.65 724.99 244.24" style="fill: #e89c15;"></polygon><polygon points="707.22 227.25 608.42 227.25 609.03 226.66 706.61 226.66 707.22 227.25" style="fill: #e89c15;"></polygon><polygon points="689.46 210.25 626.18 210.25 626.8 209.67 688.85 209.67 689.46 210.25" style="fill: #e89c15;"></polygon><polygon points="671.7 193.26 643.95 193.26 644.56 192.68 671.08 192.68 671.7 193.26" style="fill: #e89c15;"></polygon></g><rect x="582.06" y="302.44" width="151.52" height="128.42" style="fill: #fff;"></rect><rect x="589.35" y="311.92" width="136.94" height="109.47" style="fill: #a88fab;"></rect><rect x="593.52" y="316.23" width="132.77" height="105.16" style="fill: #cfc1d0;"></rect><path d="M696.62,278.22h-78.53c2.2-23.21,18.94-41.25,39.26-41.25s37.06,18.04,39.26,41.25Z" style="fill: #fff;"></path><path d="M687.65,278.22h-60.59c1.7-17.9,14.62-31.82,30.3-31.82,7.5,0,14.36,3.18,19.67,8.47,5.79,5.76,9.74,14.01,10.62,23.36Z" style="fill: #a88fab;"></path><path d="M687.65,278.22h-57.41c2.61-16.67,15.04-29.3,29.98-29.3,6.21,0,11.99,2.19,16.81,5.94,5.79,5.76,9.74,14.01,10.62,23.36Z" style="fill: #cfc1d0;"></path><path d="M670.1,278.22h-25.49c.71-7.53,6.15-13.39,12.74-13.39s12.03,5.86,12.74,13.39Z" style="fill: none; stroke: #fff; stroke-miterlimit: 10; stroke-width: .5px;"></path><line x1="657.35" y1="264.84" x2="657.35" y2="246.4" style="fill: none; stroke: #fff; stroke-miterlimit: 10; stroke-width: .5px;"></line><line x1="651.61" y1="266.43" x2="643.77" y2="250.47" style="fill: none; stroke: #fff; stroke-miterlimit: 10; stroke-width: .5px;"></line><path d="M646.82,271.31c-4.65-3.16-9.3-6.33-13.94-9.49" style="fill: none; stroke: #fff; stroke-miterlimit: 10; stroke-width: .5px;"></path><line x1="663.7" y1="266.43" x2="671.54" y2="250.47" style="fill: none; stroke: #fff; stroke-miterlimit: 10; stroke-width: .5px;"></line><path d="M668.02,271.55c4.8-3.24,9.61-6.48,14.41-9.73" style="fill: none; stroke: #fff; stroke-miterlimit: 10; stroke-width: .5px;"></path><rect x="614.12" y="311.92" width="9.46" height="109.47" style="fill: #fff;"></rect><rect x="690.51" y="311.92" width="9.46" height="109.47" style="fill: #fff;"></rect><rect x="654.06" y="298.18" width="7.52" height="136.94" transform="translate(1024.47 -291.17) rotate(90)" style="fill: #fff;"></rect><line x1="602.03" y1="311.92" x2="602.03" y2="421.39" style="fill: none; stroke: #fff; stroke-miterlimit: 10; stroke-width: .5px;"></line><line x1="640.13" y1="311.92" x2="640.13" y2="421.39" style="fill: none; stroke: #fff; stroke-miterlimit: 10; stroke-width: .5px;"></line><line x1="657.35" y1="311.92" x2="657.35" y2="421.39" style="fill: none; stroke: #fff; stroke-miterlimit: 10; stroke-width: .5px;"></line><path d="M497.93,520.31v142.38h-66.75v-142.38h62.28l1.83,3.23c-.01-1.08-.03-2.16-.05-3.23h2.69Z" style="fill: #fff;"></path><line x1="674.57" y1="311.92" x2="674.57" y2="421.39" style="fill: none; stroke: #fff; stroke-miterlimit: 10; stroke-width: .5px;"></line><line x1="712.41" y1="311.92" x2="712.41" y2="421.39" style="fill: none; stroke: #fff; stroke-miterlimit: 10; stroke-width: .5px;"></line><g><rect x="260.6" y="302.46" width="14.54" height="99.79" style="fill: #7f3689;"></rect><rect x="334.88" y="302.46" width="14.54" height="99.79" style="fill: #7f3689;"></rect><rect x="411.53" y="302.46" width="14.54" height="99.79" style="fill: #7f3689;"></rect><rect x="485.81" y="302.46" width="14.54" height="99.79" style="fill: #7f3689;"></rect><rect x="275.14" y="302.46" width="59.74" height="99.79" style="fill: #fff;"></rect><rect x="426.07" y="302.46" width="59.74" height="99.79" style="fill: #fff;"></rect><rect x="282.71" y="306.78" width="44.59" height="91.14" style="fill: #a88fab;"></rect><rect x="285.64" y="309.78" width="41.66" height="88.14" style="fill: #cfc1d0;"></rect><rect x="282.71" y="347.74" width="44.59" height="5.84" style="fill: #fff;"></rect><line x1="297.96" y1="306.78" x2="297.96" y2="397.93" style="fill: none; stroke: #fff; stroke-miterlimit: 10; stroke-width: .5px;"></line><line x1="312.15" y1="306.78" x2="312.15" y2="397.93" style="fill: none; stroke: #fff; stroke-miterlimit: 10; stroke-width: .5px;"></line><line x1="282.71" y1="325.63" x2="327.3" y2="325.63" style="fill: none; stroke: #fff; stroke-miterlimit: 10; stroke-width: .5px;"></line><line x1="282.71" y1="374.91" x2="327.3" y2="374.91" style="fill: none; stroke: #fff; stroke-miterlimit: 10; stroke-width: .5px;"></line><rect x="433.65" y="306.78" width="44.59" height="91.14" style="fill: #a88fab;"></rect><rect x="436.58" y="309.78" width="41.66" height="88.14" style="fill: #cfc1d0;"></rect><rect x="433.65" y="347.74" width="44.59" height="5.84" style="fill: #fff;"></rect><line x1="448.89" y1="306.78" x2="448.89" y2="397.93" style="fill: none; stroke: #fff; stroke-miterlimit: 10; stroke-width: .5px;"></line><line x1="463.08" y1="306.78" x2="463.08" y2="397.93" style="fill: none; stroke: #fff; stroke-miterlimit: 10; stroke-width: .5px;"></line><line x1="433.65" y1="325.63" x2="478.24" y2="325.63" style="fill: none; stroke: #fff; stroke-miterlimit: 10; stroke-width: .5px;"></line><line x1="433.65" y1="374.91" x2="478.24" y2="374.91" style="fill: none; stroke: #fff; stroke-miterlimit: 10; stroke-width: .5px;"></line></g><rect x="248.11" y="520.31" width="20.75" height="142.38" style="fill: #7f3689;"></rect><rect x="354.1" y="520.31" width="20.75" height="142.38" style="fill: #7f3689;"></rect><rect x="268.86" y="520.31" width="85.24" height="142.38" style="fill: #fff;"></rect><rect x="279.67" y="526.48" width="63.62" height="130.03" style="fill: #a88fab;"></rect><rect x="284.77" y="532.23" width="58.51" height="124.29" style="fill: #cfc1d0;"></rect><rect x="279.67" y="584.91" width="63.62" height="8.33" style="fill: #fff;"></rect><line x1="301.42" y1="526.48" x2="301.42" y2="656.51" style="fill: none; stroke: #fff; stroke-miterlimit: 10; stroke-width: .5px;"></line><line x1="321.66" y1="526.48" x2="321.66" y2="656.51" style="fill: none; stroke: #fff; stroke-miterlimit: 10; stroke-width: .5px;"></line><line x1="279.67" y1="553.37" x2="343.29" y2="553.37" style="fill: none; stroke: #fff; stroke-miterlimit: 10; stroke-width: .5px;"></line><line x1="279.67" y1="623.68" x2="343.29" y2="623.68" style="fill: none; stroke: #fff; stroke-miterlimit: 10; stroke-width: .5px;"></line><rect x="590.8" y="520.31" width="20.75" height="142.38" style="fill: #7f3689;"></rect><polygon points="548.46 508.54 378.59 508.54 379.21 507.95 547.85 507.95 548.46 508.54" style="fill: #e89c15;"></polygon><rect x="696.79" y="520.31" width="20.75" height="142.38" style="fill: #7f3689;"></rect><rect x="611.55" y="520.31" width="85.24" height="142.38" style="fill: #fff;"></rect><rect x="622.36" y="526.48" width="63.61" height="130.03" style="fill: #a88fab;"></rect><rect x="627.04" y="531.31" width="58.94" height="125.2" style="fill: #cfc1d0;"></rect><path d="M356.89,515.96l5.92,6.02c2.07-2.05,4.14-4.1,6.21-6.14-4.04,.04-8.09,.08-12.13,.13Z" style="fill: #fff;"></path><rect x="622.36" y="584.91" width="63.62" height="8.33" style="fill: #fff;"></rect><line x1="644.11" y1="526.48" x2="644.11" y2="656.51" style="fill: none; stroke: #fff; stroke-miterlimit: 10; stroke-width: .5px;"></line><line x1="664.35" y1="526.48" x2="664.35" y2="656.51" style="fill: none; stroke: #fff; stroke-miterlimit: 10; stroke-width: .5px;"></line><line x1="622.36" y1="553.37" x2="685.98" y2="553.37" style="fill: none; stroke: #fff; stroke-miterlimit: 10; stroke-width: .5px;"></line><line x1="622.36" y1="623.68" x2="685.98" y2="623.68" style="fill: none; stroke: #fff; stroke-miterlimit: 10; stroke-width: .5px;"></line><rect x="435.51" y="525.01" width="58.08" height="132.97" style="fill: #7f3689;"></rect><rect x="439.23" y="528.61" width="50.11" height="126.68" style="fill: #c6a7c9;"></rect><line x1="585.4" y1="338.94" x2="729.38" y2="338.94" style="fill: none; stroke: #fff; stroke-miterlimit: 10; stroke-width: .5px;"></line><line x1="585.4" y1="395.95" x2="729.38" y2="395.95" style="fill: none; stroke: #fff; stroke-miterlimit: 10; stroke-width: .5px;"></line><path d="M782.99,298.48h-7.09v-5.07s.39-1.83,.94-1.78,6.14,6.85,6.14,6.85Z" style="fill: #e89c15;"></path><polygon points="533.51 298.48 538.4 298.48 539.03 296.16 537.83 292.63 533.79 296.46 533.81 296.88 533.51 298.48" style="fill: #e89c15;"></polygon><rect x="37.44" y="618.96" width="163.91" height="2.67" style="fill: #db8a09;"></rect><rect x="37.44" y="654.85" width="163.91" height="2.67" style="fill: #db8a09;"></rect><rect x="781.69" y="618.96" width="163.91" height="2.67" style="fill: #db8a09;"></rect><rect x="781.69" y="654.85" width="163.91" height="2.67" style="fill: #db8a09;"></rect><rect x="618.09" y="278.22" width="78.53" height="3.83" style="fill: #e89c15;"></rect><rect x="260.6" y="402.25" width="88.83" height="3.83" style="fill: #db8a09;"></rect><rect x="411.53" y="402.25" width="88.83" height="3.83" style="fill: #db8a09;"></rect><rect x="582.06" y="430.86" width="151.52" height="3.83" style="fill: #e89c15;"></rect><polygon points="530.7 491.55 399.76 491.55 400.38 490.96 530.08 490.96 530.7 491.55" style="fill: #e89c15;"></polygon><polygon points="512.93 474.56 414.12 474.56 414.74 473.97 512.32 473.97 512.93 474.56" style="fill: #e89c15;"></polygon><polygon points="495.17 457.56 431.89 457.56 432.5 456.98 494.55 456.98 495.17 457.56" style="fill: #e89c15;"></polygon><polygon points="477.4 440.57 449.65 440.57 450.27 439.98 476.79 439.98 477.4 440.57" style="fill: #e89c15;"></polygon><ellipse cx="483.11" cy="591.95" rx="3.21" ry="3.78" style="fill: #db8a09;"></ellipse><path d="M191.65,594.37h0c2.82,0,5.1,2.29,5.1,5.1v82.99h-10.2v-82.99c0-2.82,2.29-5.1,5.1-5.1Z" style="fill: #f2a41c;"></path><path d="M178.8,594.37h0c2.82,0,5.1,2.29,5.1,5.1v82.99h-10.2v-82.99c0-2.82,2.29-5.1,5.1-5.1Z" style="fill: #f2a41c;"></path><path d="M165.95,594.37h0c2.82,0,5.1,2.29,5.1,5.1v82.99h-10.2v-82.99c0-2.82,2.29-5.1,5.1-5.1Z" style="fill: #f2a41c;"></path><path d="M153.1,594.37h0c2.82,0,5.1,2.29,5.1,5.1v82.99h-10.2v-82.99c0-2.82,2.29-5.1,5.1-5.1Z" style="fill: #f2a41c;"></path><path d="M140.25,594.37h0c2.82,0,5.1,2.29,5.1,5.1v82.99h-10.2v-82.99c0-2.82,2.29-5.1,5.1-5.1Z" style="fill: #f2a41c;"></path><path d="M127.39,594.37h0c2.82,0,5.1,2.29,5.1,5.1v82.99h-10.2v-82.99c0-2.82,2.29-5.1,5.1-5.1Z" style="fill: #f2a41c;"></path><path d="M114.54,594.37h0c2.82,0,5.1,2.29,5.1,5.1v82.99h-10.2v-82.99c0-2.82,2.29-5.1,5.1-5.1Z" style="fill: #f2a41c;"></path><path d="M101.69,594.37h0c2.82,0,5.1,2.29,5.1,5.1v82.99h-10.2v-82.99c0-2.82,2.29-5.1,5.1-5.1Z" style="fill: #f2a41c;"></path><path d="M88.84,594.37h0c2.82,0,5.1,2.29,5.1,5.1v82.99h-10.2v-82.99c0-2.82,2.29-5.1,5.1-5.1Z" style="fill: #f2a41c;"></path><path d="M75.99,594.37h0c2.82,0,5.1,2.29,5.1,5.1v82.99h-10.2v-82.99c0-2.82,2.29-5.1,5.1-5.1Z" style="fill: #f2a41c;"></path><path d="M63.14,594.37h0c2.82,0,5.1,2.29,5.1,5.1v82.99h-10.2v-82.99c0-2.82,2.29-5.1,5.1-5.1Z" style="fill: #f2a41c;"></path><path d="M50.29,594.37h0c2.82,0,5.1,2.29,5.1,5.1v82.99h-10.2v-82.99c0-2.82,2.29-5.1,5.1-5.1Z" style="fill: #f2a41c;"></path><path d="M37.44,594.37h0c2.82,0,5.1,2.29,5.1,5.1v82.99h-10.2v-82.99c0-2.82,2.29-5.1,5.1-5.1Z" style="fill: #f2a41c;"></path><path d="M946.23,594.37h0c2.82,0,5.1,2.29,5.1,5.1v82.99h-10.2v-82.99c0-2.82,2.29-5.1,5.1-5.1Z" style="fill: #f2a41c;"></path><path d="M933.38,594.37h0c2.82,0,5.1,2.29,5.1,5.1v82.99h-10.2v-82.99c0-2.82,2.29-5.1,5.1-5.1Z" style="fill: #f2a41c;"></path><path d="M920.53,594.37h0c2.82,0,5.1,2.29,5.1,5.1v82.99h-10.2v-82.99c0-2.82,2.29-5.1,5.1-5.1Z" style="fill: #f2a41c;"></path><path d="M907.68,594.37h0c2.82,0,5.1,2.29,5.1,5.1v82.99h-10.2v-82.99c0-2.82,2.29-5.1,5.1-5.1Z" style="fill: #f2a41c;"></path><path d="M894.83,594.37h0c2.82,0,5.1,2.29,5.1,5.1v82.99h-10.2v-82.99c0-2.82,2.29-5.1,5.1-5.1Z" style="fill: #f2a41c;"></path><path d="M881.98,594.37h0c2.82,0,5.1,2.29,5.1,5.1v82.99h-10.2v-82.99c0-2.82,2.29-5.1,5.1-5.1Z" style="fill: #f2a41c;"></path><path d="M869.13,594.37h0c2.82,0,5.1,2.29,5.1,5.1v82.99h-10.2v-82.99c0-2.82,2.29-5.1,5.1-5.1Z" style="fill: #f2a41c;"></path><path d="M856.28,594.37h0c2.82,0,5.1,2.29,5.1,5.1v82.99h-10.2v-82.99c0-2.82,2.29-5.1,5.1-5.1Z" style="fill: #f2a41c;"></path><path d="M843.43,594.37h0c2.82,0,5.1,2.29,5.1,5.1v82.99h-10.2v-82.99c0-2.82,2.29-5.1,5.1-5.1Z" style="fill: #f2a41c;"></path><path d="M830.58,594.37h0c2.82,0,5.1,2.29,5.1,5.1v82.99h-10.2v-82.99c0-2.82,2.29-5.1,5.1-5.1Z" style="fill: #f2a41c;"></path><path d="M817.73,594.37h0c2.82,0,5.1,2.29,5.1,5.1v82.99h-10.2v-82.99c0-2.82,2.29-5.1,5.1-5.1Z" style="fill: #f2a41c;"></path><path d="M804.88,594.37h0c2.82,0,5.1,2.29,5.1,5.1v82.99h-10.2v-82.99c0-2.82,2.29-5.1,5.1-5.1Z" style="fill: #f2a41c;"></path><path d="M792.02,594.37h0c2.82,0,5.1,2.29,5.1,5.1v82.99h-10.2v-82.99c0-2.82,2.29-5.1,5.1-5.1Z" style="fill: #f2a41c;"></path><ellipse cx="416.47" cy="748.18" rx="58.52" ry="8.7" style="fill: #cce2a6;"></ellipse><ellipse cx="209.96" cy="775.44" rx="39.94" ry="3.4" style="fill: #cce2a6;"></ellipse><ellipse cx="549.75" cy="748.18" rx="63.43" ry="8.7" style="fill: #cce2a6;"></ellipse><g><polygon points="390.67 607.21 383.78 665.58 384.86 717.18 405.24 717.18 403.88 667.58 412.98 624.47 421.53 717.18 440.55 717.18 434.16 607.21 390.67 607.21" style="fill: #0b021e;"></polygon><path d="M405.64,546.7l-15.99,7.56c-7.76,3.67-13.68,10.25-16.45,18.25l-1.89,5.49,18.03,5.7,1.32,23.5h43.49l2.24-29,3.67,2c2.89-5.87,5.77-11.73,8.66-17.6-4.13-2.5-8.61-5.03-13.45-7.5-6.52-3.33-12.76-6.1-18.59-8.4h-11.05Z" style="fill: #fff;"></path><path d="M375.89,579.45l-3.96,14.16s-.93,3.5,1.98,5.5l15.44,12.8,1.12,4.55c.1,.41,.44,.71,.87,.76,1.74,.21,6.32,.36,9.48-3.06l3.72,1.15c.86,.24,1.74-.27,1.94-1.05,.22-.86-.44-1.82-1.52-1.86-3.93-2.25-7.32-4.18-11.26-6.43l-8.77-12.31,4.43-9.95-13.46-4.26Z" style="fill: #fca29d;"></path><path d="M448.13,563.82c.06-.12,2.94,1.48,2.94,1.48l-1.9-29.2-3.54-3.79c-1.07-1.15-1.81-2.56-2.14-4.09l-.82-3.82c-.11-.78,.39-1.51,1.14-1.7,.69-.17,1.43,.16,1.77,.8,.71,1.15,1.43,2.3,2.14,3.45l.31-15.4c-.02-.74,.63-1.33,1.33-1.27,.71,.05,1.25,.74,1.11,1.47,.08,2.88,.17,5.77,.25,8.65l1.22-9.95c.12-.83,.94-1.35,1.66-1.18,.61,.15,1.07,.77,.99,1.48-.34,3.31-.68,6.62-1.02,9.93l2.5-7.49c.17-.66,.87-1.05,1.53-.86,.65,.19,1.03,.88,.81,1.53-.51,2.66-1.02,5.32-1.53,7.98l1.53-4.23c.26-.54,.86-.81,1.38-.68,.62,.16,1.02,.89,.76,1.58-1.41,6.07-2.82,12.13-4.23,18.2l9.12,37.4c.62,2.6-.29,5.33-2.34,7.05-2.14,1.79-5.16,2.2-7.74,1.05-4.46-1.96-8.92-3.91-13.38-5.87l6.16-12.51Z" style="fill: #fca29d;"></path><line x1="451.07" y1="565.3" x2="451.62" y2="573.97" style="fill: none; stroke: #e57d7a; stroke-linecap: round; stroke-miterlimit: 10; stroke-width: 1.07px;"></line><line x1="384.91" y1="593.65" x2="380.99" y2="589.04" style="fill: none; stroke: #e57d7a; stroke-linecap: round; stroke-miterlimit: 10; stroke-width: 1.07px;"></line><line x1="389.35" y1="583.7" x2="387.92" y2="571.2" style="fill: none; stroke: #dbdbdb; stroke-linecap: round; stroke-miterlimit: 10; stroke-width: 1.07px;"></line><line x1="436.4" y1="578.2" x2="429.78" y2="575.1" style="fill: none; stroke: #dbdbdb; stroke-linecap: round; stroke-miterlimit: 10; stroke-width: 1.07px;"></line><rect x="382.15" y="717.18" width="26.08" height="11" rx="1.51" ry="1.51" style="fill: #30002d;"></rect><rect x="418.68" y="717.18" width="26.08" height="11" rx="1.51" ry="1.51" style="fill: #30002d;"></rect><path d="M390.09,728.18h12.02v3.32c0,3.32-2.69,6.01-6.01,6.01h0c-3.32,0-6.01-2.69-6.01-6.01v-3.32h0Z" style="fill: #fca29d;"></path><path d="M426.69,728.18h12.02v3.32c0,3.32-2.69,6.01-6.01,6.01h0c-3.32,0-6.01-2.69-6.01-6.01v-3.32h0Z" style="fill: #fca29d;"></path><path d="M402.5,748.65h-38.49c-.31-1.38-.27-2.53,0-3.47,.87-3.13,4.08-4,4.08-4l22-9.56h12.02l3.35,13.33c.02,.08,.04,.16,.05,.24,.31,1.8-1.11,3.47-3,3.47Z" style="fill: #0b021e;"></path><path d="M402.5,748.65h-38.49c-.31-1.38-.27-2.53,0-3.47h41.5c.31,1.8-1.11,3.47-3,3.47Z" style="fill: #fff;"></path><path d="M380,741.56h0c-.49,.48-1.29,.48-1.78,0l-2.93-2.88c-.49-.48-.49-1.26,0-1.74h0c.49-.48,1.29-.48,1.78,0l2.93,2.88c.49,.48,.49,1.26,0,1.74Z" style="fill: #fff;"></path><path d="M383.51,739.54h0c-.49,.48-1.29,.48-1.78,0l-2.93-2.88c-.49-.48-.49-1.26,0-1.74h0c.49-.48,1.29-.48,1.78,0l2.93,2.88c.49,.48,.49,1.26,0,1.74Z" style="fill: #fff;"></path><path d="M387.14,737.67h0c-.49,.48-1.29,.48-1.78,0l-2.93-2.88c-.49-.48-.49-1.26,0-1.74h0c.49-.48,1.29-.48,1.78,0l2.93,2.88c.49,.48,.49,1.26,0,1.74Z" style="fill: #fff;"></path><path d="M426.34,748.65h38.49c.31-1.38,.27-2.53,0-3.47-.87-3.13-4.08-4-4.08-4l-22-9.56h-12.02s-3.35,13.33-3.35,13.33c-.02,.08-.04,.16-.05,.24-.31,1.8,1.11,3.47,3,3.47Z" style="fill: #0b021e;"></path><path d="M426.34,748.65h38.49c.31-1.38,.27-2.53,0-3.47h-41.5c-.31,1.8,1.11,3.47,3,3.47Z" style="fill: #fff;"></path><path d="M448.84,741.56h0c.49,.48,1.29,.48,1.78,0l2.93-2.88c.49-.48,.49-1.26,0-1.74h0c-.49-.48-1.29-.48-1.78,0l-2.93,2.88c-.49,.48-.49,1.26,0,1.74Z" style="fill: #fff;"></path><path d="M445.33,739.54h0c.49,.48,1.29,.48,1.78,0l2.93-2.88c.49-.48,.49-1.26,0-1.74h0c-.49-.48-1.29-.48-1.78,0l-2.93,2.88c-.49,.48-.49,1.26,0,1.74Z" style="fill: #fff;"></path><path d="M441.7,737.67h0c.49,.48,1.29,.48,1.78,0l2.93-2.88c.49-.48,.49-1.26,0-1.74h0c-.49-.48-1.29-.48-1.78,0l-2.93,2.88c-.49,.48-.49,1.26,0,1.74Z" style="fill: #fff;"></path><path d="M416.52,535.69v13.13c.02,3.01-2.5,5.49-5.55,5.47-3.02-.01-5.51-2.48-5.5-5.47v-13.13h11.05Z" style="fill: #fca29d;"></path><path d="M416.52,538.78v3.64c-1.61,.96-3.51,1.51-5.52,1.51s-3.92-.55-5.52-1.51v-3.64h11.05Z" style="fill: #e57d7a;"></path><rect x="398.14" y="516.98" width="7.33" height="11.4" style="fill: #0b021e;"></rect><path d="M416.75,514.95h2.14c2.87,0,5.19,2.33,5.19,5.19v8.24h-7.33v-13.43h0Z" style="fill: #0b021e;"></path><ellipse cx="418.9" cy="514.56" rx="4.97" ry="4.88" style="fill: #30002d;"></ellipse><rect x="400.28" y="512.16" width="21.44" height="29.75" rx="10.72" ry="10.72" style="fill: #fca29d;"></rect><ellipse cx="414.53" cy="513.06" rx="4.07" ry="3.99" style="fill: #30002d;"></ellipse><path d="M417.14,510c-1.38-1.2-5.88-4.8-11.94-4.41-1.79,.11-6.62,.42-8.49,3.93-1.08,2.02-1.02,4.81,.27,6.53,2.32,3.1,9.14,3.41,16.33-.7,1.28-1.78,2.55-3.57,3.83-5.35Z" style="fill: #30002d;"></path><path d="M397.23,523.72h.83c1.23,0,2.23,1,2.23,2.23v4.52h-2.55c-1.35,0-2.44-1.1-2.44-2.44v-2.37c0-1.07,.87-1.94,1.94-1.94Z" style="fill: #fca29d;"></path><path d="M424.17,523.67h2.55v4.52c0,1.23-1,2.23-2.23,2.23h-.83c-1.07,0-1.94-.87-1.94-1.94v-2.37c0-1.35,1.1-2.44,2.44-2.44Z" transform="translate(848.44 1054.08) rotate(-180)" style="fill: #fca29d;"></path><ellipse cx="405.62" cy="526.8" rx=".93" ry=".91" style="fill: #30002d;"></ellipse><ellipse cx="415.29" cy="526.8" rx=".93" ry=".91" style="fill: #30002d;"></ellipse><rect x="402.33" y="522.5" width="6.29" height="1.43" rx=".71" ry=".71" style="fill: #30002d;"></rect><rect x="407.37" y="527.29" width="6.18" height="1.45" rx=".73" ry=".73" transform="translate(938.47 117.56) rotate(90)" style="fill: #e57d7a;"></rect><rect x="412.14" y="522.5" width="6.29" height="1.43" rx=".71" ry=".71" style="fill: #30002d;"></rect><path d="M407.31,532.92h7.05c0,1.91-1.58,3.46-3.53,3.46s-3.53-1.55-3.53-3.46Z" style="fill: #fff;"></path></g><g><path d="M510.74,563.4l-2.15,1.03-4.4,2.13-.36-1.03c-4.51-4.38-9-8.75-13.52-13.13-.58-.44-.64-1.26-.23-1.73,.36-.39,1.02-.47,1.54-.16l3.59,2.77c-1.08-1.15-2.16-2.27-3.24-3.41-.8-.84-1.61-1.69-2.4-2.53-.54-.42-.6-1.21-.15-1.71,.45-.51,1.26-.55,1.76-.07l5.34,4.31,.86,.7c-.18-.23-.38-.46-.56-.7-1.92-2.39-3.82-4.77-5.73-7.15-.45-.56-.41-1.32,.03-1.77,.51-.52,1.48-.51,2.05,.13l6.46,7.74c-1.5-2.46-3.01-4.94-4.52-7.43-.51-.55-.43-1.41,.14-1.83,.56-.41,1.43-.25,1.81,.38l6.72,9.93,1.96,2.9c-.01-.97-.03-1.94-.05-2.9,0-.38-.01-.76-.02-1.14-.08-.72,.38-1.4,1.05-1.61,.73-.23,1.56,.12,1.89,.83l1.39,3.67c.56,1.46,.71,3.03,.42,4.58l-.9,5.06,1.2,2.15Z" style="fill: #fca29d;"></path><path d="M551.8,506.19c-4.17,.45-6.85,2.65-7.75,3.4-3.4,2.87-4.71,6.63-5.2,9.33-.65,3.52-2.04,6.88-4.22,9.76-.19,.25-.38,.49-.57,.74-2.08,2.61-4.23,4.6-6.1,6.07-1.27,1-2.4,2.15-3.3,3.48-1.25,1.84-2.48,4.37-2.73,7.47-.61,7.38,4.56,14.92,13.05,18.62,11.79-4.4,23.59-8.81,35.38-13.21,1.36-3.03,5.92-14.2,1.63-27.23-2.66-8.08-7.55-13.29-10.3-15.82-.98-.68-4.75-3.16-9.89-2.6Z" style="fill: #0b021e;"></path><path d="M550.96,547.84l-8.66,2.7c-5.31,1.66-9.65,5.45-11.93,10.44l-6.88,15.05,7.95,14.28,10.94-16.02,6.8,15.08h21.55l4.42-17.22,12.3,14.75,12.44-4.67c-5.24-8.39-10.49-16.77-15.73-25.16-2.92-4.67-7.74-7.9-13.23-8.86-3.03-.53-6.06-1.06-9.08-1.59l-10.89,1.21Z" style="fill: #fff;"></path><path d="M560.34,533.69l1.5,12.94c.36,2.97-1.84,5.68-4.84,6-2.98,.32-5.71-1.83-6.05-4.78l-1.5-12.94,10.89-1.21Z" style="fill: #fca29d;"></path><path d="M560.7,536.74l.42,3.59c-1.48,1.12-3.28,1.87-5.27,2.09s-3.92-.11-5.61-.88l-.42-3.59,10.89-1.21Z" style="fill: #e57d7a;"></path><path d="M555.61,540.43h0c-5.83,.65-11.1-3.46-11.76-9.19l-.99-8.57c-.66-5.73,3.53-10.9,9.36-11.55h0c5.83-.65,11.1,3.46,11.76,9.19l.99,8.57c.66,5.73-3.53,10.9-9.36,11.55Z" style="fill: #fca29d;"></path><path d="M543.75,530.33l-2.51,.28c-1.33,.15-2.53-.79-2.68-2.1l-.28-2.41c-.12-1.03,.64-1.97,1.69-2.08l.82-.09c1.21-.14,2.31,.72,2.44,1.91l.52,4.5Z" style="fill: #fca29d;"></path><path d="M564.86,527.92l2.51-.28c1.33-.15,2.29-1.33,2.13-2.63l-.28-2.41c-.12-1.03-1.07-1.78-2.12-1.66l-.82,.09c-1.21,.14-2.08,1.21-1.95,2.4l.52,4.5Z" style="fill: #fca29d;"></path><ellipse cx="548.59" cy="526.14" rx=".92" ry=".9" style="fill: #0b021e;"></ellipse><ellipse cx="558.12" cy="525.07" rx=".92" ry=".9" style="fill: #0b021e;"></ellipse><path d="M550.5,523.05l-4.77,.53c-.39,.04-.75-.23-.8-.62h0c-.04-.39,.24-.74,.63-.78l4.77-.53c.39-.04,.75,.23,.8,.62h0c.04,.39-.24,.74-.63,.78Z" style="fill: #0b021e;"></path><path d="M553.05,529.22l-.54-4.68c-.04-.39,.24-.74,.63-.78h0c.39-.04,.75,.23,.8,.62l.54,4.68c.04,.39-.24,.74-.63,.78h0c-.39,.04-.75-.23-.8-.62Z" style="fill: #e57d7a;"></path><path d="M560.17,521.97l-4.77,.53c-.39,.04-.75-.23-.8-.62h0c-.04-.39,.24-.74,.63-.78l4.77-.53c.39-.04,.75,.23,.8,.62h0c.04,.39-.24,.74-.63,.78Z" style="fill: #0b021e;"></path><path d="M550.95,531.97l6.95-.78c.22,1.88-1.16,3.58-3.08,3.8-1.92,.21-3.65-1.14-3.87-3.02Z" style="fill: #fff;"></path><path d="M506.22,558.75l24.67,24.13c1.76,2.76,1.64,6.12-.1,8.11-2.33,2.66-7.55,2.86-10.81-.67-6.22-9.39-12.44-18.78-18.66-28.16l4.89-3.4Z" style="fill: #fca29d;"></path><path d="M549.18,589.38s-9.62,9.11-12.68,25.33l-19.76,111.72h18.23l24.06-111.42,4.38,111.42h15.53l3.81-111.02s-1.09-18.29-12.03-26.03h-21.55Z" style="fill: #0b021e;"></path><g><path d="M519.99,726.43l-1.35,4.88c-.95,3.44,1.69,6.83,5.32,6.83h0c2.62,0,4.87-1.81,5.4-4.32l1.54-7.39h-10.91Z" style="fill: #fca29d;"></path><path d="M527.22,748.65h-28.64c-.2-.1-2.2-1.12-2.55-3.31-.02-.13-.04-.26-.04-.4-.1-1.72,.9-3.42,2.59-4.3l20.06-9.33,10.72,2.51,1.16,11.13v.11c.21,1.92-1.33,3.59-3.29,3.59Z" style="fill: #0b021e;"></path><path d="M527.22,748.65h-28.64c-.2-.1-2.2-1.12-2.55-3.31-.02-.13-.04-.26-.04-.4h34.53v.11c.21,1.92-1.33,3.59-3.29,3.59Z" style="fill: #fff;"></path><path d="M509.07,740.8h0c-.47,.46-1.23,.46-1.69,0l-2.92-2.87c-.47-.46-.47-1.2,0-1.66h0c.47-.46,1.23-.46,1.69,0l2.92,2.87c.47,.46,.47,1.2,0,1.66Z" style="fill: #fff;"></path><path d="M512.13,738.95h0c-.47,.46-1.23,.46-1.69,0l-2.92-2.87c-.47-.46-.47-1.2,0-1.66h0c.47-.46,1.23-.46,1.69,0l2.92,2.87c.47,.46,.47,1.2,0,1.66Z" style="fill: #fff;"></path><path d="M515.57,737.16h0c-.47,.46-1.23,.46-1.69,0l-2.92-2.87c-.47-.46-.47-1.2,0-1.66h0c.47-.46,1.23-.46,1.69,0l2.92,2.87c.47,.46,.47,1.2,0,1.66Z" style="fill: #fff;"></path><path d="M567.81,748.65h28.64c.2-.1,2.2-1.12,2.55-3.31,.02-.13,.04-.26,.04-.4,.1-1.72-.9-3.42-2.59-4.3-6.58-3.06-13.16-6.12-19.74-9.18-3.48,.54-6.97,1.09-10.45,1.63-.58,3.95-1.17,7.9-1.75,11.86v.11c-.21,1.92,1.33,3.59,3.29,3.59Z" style="fill: #0b021e;"></path><path d="M567.81,748.65h28.64c.2-.1,2.2-1.12,2.55-3.31,.02-.13,.04-.26,.04-.4h-34.53s-.01,.11-.01,.11c-.2,1.92,1.34,3.59,3.31,3.59Z" style="fill: #fff;"></path><path d="M585.95,740.8h0c.47,.46,1.23,.46,1.69,0l2.92-2.87c.47-.46,.47-1.2,0-1.66h0c-.47-.46-1.23-.46-1.69,0l-2.92,2.87c-.47,.46-.47,1.2,0,1.66Z" style="fill: #fff;"></path><path d="M582.9,738.95h0c.47,.46,1.23,.46,1.69,0l2.92-2.87c.47-.46,.47-1.2,0-1.66h0c-.47-.46-1.23-.46-1.69,0l-2.92,2.87c-.47,.46-.47,1.2,0,1.66Z" style="fill: #fff;"></path><path d="M579.46,737.16h0c.47,.46,1.23,.46,1.69,0l2.92-2.87c.47-.46,.47-1.2,0-1.66h0c-.47-.46-1.23-.46-1.69,0l-2.92,2.87c-.47,.46-.47,1.2,0,1.66Z" style="fill: #fff;"></path><path d="M566.24,725.46h10.47v7.12c0,2.89-2.35,5.23-5.23,5.23h0c-2.89,0-5.23-2.35-5.23-5.23v-7.12h0Z" style="fill: #fca29d;"></path></g><path d="M587.45,586.91l-14.95,12.08,3.77,11.91,2.04-7.71c6.13-3.25,12.25-6.49,18.38-9.74,4.03-2.13,5.51-7.08,3.31-11.02l-.11-.19-12.44,4.67Z" style="fill: #fca29d;"></path><path d="M554.51,513.99c-.12,1.21-.43,2.63-1.14,4.1-2.69,5.6-8.87,7.29-10.15,7.61-.64-1.17-1.62-3.38-1.38-6.13,.33-3.76,2.96-8.74,6.94-8.86,3.01-.09,5.23,2.63,5.73,3.27Z" style="fill: #0b021e;"></path><path d="M554.51,513.99c.95,1.59,2.47,3.72,4.79,5.78,1.82,1.61,3.6,2.72,5.04,3.47,.35-1.97,.29-3.6,.17-4.7-.21-1.96-.45-4.14-2.13-6.01-1.14-1.27-2.43-1.83-2.96-2.05-2.23-.94-4.24-.68-6.99-.3-1.33,.19-3.24,.55-5.47,1.34,2.52,.82,5.04,1.64,7.56,2.46Z" style="fill: #0b021e;"></path><line x1="542.38" y1="574.3" x2="538.95" y2="567.74" style="fill: none; stroke: #dbdbdb; stroke-linecap: round; stroke-miterlimit: 10; stroke-width: 1.07px;"></line><line x1="575.15" y1="572.16" x2="576.78" y2="565.05" style="fill: none; stroke: #dbdbdb; stroke-linecap: round; stroke-miterlimit: 10; stroke-width: 1.07px;"></line></g><g><rect x="164.79" y="702.07" width="90.14" height="26.08" style="fill: #ffba26;"></rect><rect x="203.82" y="728.14" width="12.09" height="3.29" style="fill: #ea9b11;"></rect><g><rect x="203.82" y="728.14" width="12.09" height="48.29" style="fill: #ffba26;"></rect><g><path d="M170.03,708.62h7.2v1.45h-5.47v4.44h5.06v1.43h-5.06v6.05h-1.73v-13.37Z" style="fill: #fff;"></path><path d="M191.11,715.17c0,4.6-2.8,7.04-6.21,7.04s-6.01-2.74-6.01-6.78c0-4.25,2.64-7.02,6.21-7.02s6.01,2.8,6.01,6.76Zm-10.37,.22c0,2.86,1.55,5.42,4.26,5.42s4.28-2.52,4.28-5.55c0-2.66-1.39-5.44-4.26-5.44s-4.29,2.64-4.29,5.57Z" style="fill: #fff;"></path><path d="M193.36,708.8c.87-.18,2.12-.28,3.31-.28,1.84,0,3.04,.34,3.87,1.09,.67,.59,1.05,1.51,1.05,2.54,0,1.77-1.11,2.94-2.52,3.41v.06c1.03,.36,1.65,1.31,1.96,2.7,.44,1.87,.75,3.15,1.03,3.67h-1.79c-.22-.38-.52-1.53-.89-3.19-.4-1.84-1.11-2.54-2.68-2.6h-1.63v5.79h-1.73v-13.19Zm1.73,6.09h1.77c1.84,0,3.01-1.01,3.01-2.54,0-1.73-1.25-2.48-3.07-2.5-.83,0-1.43,.08-1.71,.16v4.88Z" style="fill: #fff;"></path><path d="M208.24,708.8c.87-.18,2.12-.28,3.31-.28,1.84,0,3.03,.34,3.87,1.09,.67,.59,1.05,1.51,1.05,2.54,0,1.77-1.11,2.94-2.52,3.41v.06c1.03,.36,1.65,1.31,1.96,2.7,.44,1.87,.75,3.15,1.03,3.67h-1.79c-.22-.38-.52-1.53-.89-3.19-.4-1.84-1.11-2.54-2.68-2.6h-1.63v5.79h-1.73v-13.19Zm1.73,6.09h1.77c1.85,0,3.02-1.01,3.02-2.54,0-1.73-1.25-2.48-3.07-2.5-.83,0-1.43,.08-1.71,.16v4.88Z" style="fill: #fff;"></path><path d="M225.83,715.72h-5.2v4.82h5.79v1.45h-7.52v-13.37h7.22v1.45h-5.49v4.23h5.2v1.43Z" style="fill: #fff;"></path><path d="M228.67,721.99v-13.37h1.88l4.29,6.76c.99,1.57,1.76,2.98,2.4,4.34l.04-.02c-.16-1.79-.2-3.41-.2-5.49v-5.59h1.63v13.37h-1.75l-4.25-6.78c-.93-1.49-1.83-3.01-2.5-4.46l-.06,.02c.1,1.69,.14,3.29,.14,5.51v5.71h-1.63Z" style="fill: #fff;"></path><path d="M244.26,710.09h-4.07v-1.47h9.9v1.47h-4.09v11.9h-1.75v-11.9Z" style="fill: #fff;"></path></g></g></g></g></g></svg>